<svg width="50" height="50" viewBox="0 0 50 50" fill="none" xmlns="http://www.w3.org/2000/svg">
<path d="M10.0959 29.953H29.8636V25.011H10.0959V29.953ZM10.0959 22.5401H39.7475V17.5981H10.0959V22.5401ZM10.0959 15.1272H39.7475V10.1852H10.0959V15.1272ZM0.21199 49.7207V5.2433C0.21199 3.88427 0.6963 2.72044 1.66492 1.75182C2.63354 0.783204 3.79654 0.299718 5.15393 0.301365H44.6894C46.0484 0.301365 47.2123 0.785675 48.1809 1.75429C49.1495 2.72291 49.633 3.88592 49.6313 5.2433V34.8949C49.6313 36.2539 49.147 37.4178 48.1784 38.3864C47.2098 39.355 46.0468 39.8385 44.6894 39.8368H10.0959L0.21199 49.7207Z" fill="white"/>
</svg>
