<svg width="41" height="41" viewBox="0 0 41 41" fill="none" xmlns="http://www.w3.org/2000/svg">
<path d="M14.5927 29.9406C14.1879 29.4622 13.9854 28.9196 13.9854 28.3131C13.9854 27.7065 14.1879 27.2001 14.5927 26.7938L18.6781 22.7083H2.83334C2.20765 22.7083 1.6828 22.4963 1.2588 22.0723C0.834799 21.6483 0.623535 21.1242 0.625008 20.5C0.625008 19.8743 0.837008 19.3495 1.26101 18.9255C1.68501 18.5015 2.20912 18.2902 2.83334 18.2917H18.6781L14.5927 14.2063C14.151 13.7646 13.9302 13.2397 13.9302 12.6317C13.9302 12.0237 14.151 11.4996 14.5927 11.0594C14.9976 10.6177 15.504 10.3969 16.112 10.3969C16.7201 10.3969 17.2258 10.5993 17.6292 11.0042L25.5792 18.9542C25.8 19.175 25.9568 19.4142 26.0495 19.6719C26.1423 19.9295 26.1879 20.2056 26.1865 20.5C26.1865 20.7945 26.1408 21.0705 26.0495 21.3281C25.9583 21.5858 25.8015 21.825 25.5792 22.0458L17.6292 29.9958C17.1875 30.4375 16.6722 30.6399 16.0833 30.6031C15.4945 30.5663 14.9976 30.3455 14.5927 29.9406ZM22.7083 40.375C22.0826 40.375 21.5585 40.1637 21.136 39.7412C20.7135 39.3187 20.5015 38.7938 20.5 38.1667C20.5 37.541 20.712 37.0161 21.136 36.5921C21.56 36.1681 22.0841 35.9569 22.7083 35.9583H35.9583V5.04167H22.7083C22.0826 5.04167 21.5578 4.82967 21.1338 4.40567C20.7098 3.98167 20.4985 3.45756 20.5 2.83334C20.5 2.20765 20.712 1.6828 21.136 1.2588C21.56 0.834799 22.0841 0.623535 22.7083 0.625008H35.9583C37.1729 0.625008 38.2131 1.05784 39.0787 1.92351C39.9444 2.78917 40.3765 3.82856 40.375 5.04167V35.9583C40.375 37.1729 39.9422 38.2131 39.0765 39.0787C38.2108 39.9444 37.1715 40.3765 35.9583 40.375H22.7083Z" fill="white"/>
</svg>
