<svg width="49" height="50" viewBox="0 0 49 50" fill="none" xmlns="http://www.w3.org/2000/svg">
<path d="M24.5668 33.6594C22.2731 33.6594 20.0734 32.7483 18.4515 31.1264C16.8296 29.5045 15.9184 27.3047 15.9184 25.011C15.9184 22.7173 16.8296 20.5176 18.4515 18.8957C20.0734 17.2738 22.2731 16.3627 24.5668 16.3627C26.8605 16.3627 29.0603 17.2738 30.6821 18.8957C32.304 20.5176 33.2152 22.7173 33.2152 25.011C33.2152 27.3047 32.304 29.5045 30.6821 31.1264C29.0603 32.7483 26.8605 33.6594 24.5668 33.6594ZM42.9261 27.4079C43.0249 26.6172 43.0991 25.8265 43.0991 25.011C43.0991 24.1956 43.0249 23.3802 42.9261 22.5401L48.1399 18.5124C48.6093 18.1418 48.7329 17.4746 48.4364 16.931L43.4944 8.38143C43.1979 7.83782 42.5308 7.61543 41.9871 7.83782L35.8344 10.3088C34.5495 9.34511 33.2152 8.50498 31.6585 7.88724L30.7442 1.33917C30.694 1.04813 30.5424 0.784259 30.3163 0.594303C30.0902 0.404346 29.8041 0.300571 29.5088 0.301366H19.6249C19.0071 0.301366 18.4882 0.74614 18.3894 1.33917L17.4751 7.88724C15.9184 8.50498 14.5841 9.34511 13.2992 10.3088L7.1465 7.83782C6.60288 7.61543 5.93572 7.83782 5.63921 8.38143L0.697271 16.931C0.376045 17.4746 0.524304 18.1418 0.993788 18.5124L6.20753 22.5401C6.10869 23.3802 6.03456 24.1956 6.03456 25.011C6.03456 25.8265 6.10869 26.6172 6.20753 27.4079L0.993788 31.5097C0.524304 31.8803 0.376045 32.5475 0.697271 33.0911L5.63921 41.6407C5.93572 42.1843 6.60288 42.382 7.1465 42.1843L13.2992 39.6886C14.5841 40.677 15.9184 41.5171 17.4751 42.1348L18.3894 48.6829C18.4882 49.2759 19.0071 49.7207 19.6249 49.7207H29.5088C30.1265 49.7207 30.6454 49.2759 30.7442 48.6829L31.6585 42.1348C33.2152 41.4924 34.5495 40.677 35.8344 39.6886L41.9871 42.1843C42.5308 42.382 43.1979 42.1843 43.4944 41.6407L48.4364 33.0911C48.7329 32.5475 48.6093 31.8803 48.1399 31.5097L42.9261 27.4079Z" fill="white"/>
</svg>
