<svg width="54" height="54" viewBox="0 0 54 54" fill="none" xmlns="http://www.w3.org/2000/svg">
<path d="M39.4641 0.0658875C39.4641 0.0658875 35.0859 6.07729 35.7577 9.33202C36.1051 11.0462 37.7151 13.0385 39.4641 13.0385C41.2131 13.0385 42.8231 11.0462 43.1706 9.33202C43.8424 6.07729 39.4641 0.0658875 39.4641 0.0658875ZM15.5112 11.8107C15.5112 11.8107 11.1329 17.8221 11.8047 21.0768C12.1522 22.7911 13.7622 24.7833 15.5112 24.7833C17.2602 24.7833 18.8701 22.7911 19.2176 21.0768C19.8894 17.8221 15.5112 11.8107 15.5112 11.8107ZM43.437 27.3431C41.3634 27.3441 39.3364 27.6016 37.6084 28.0835C35.8804 28.5655 34.5278 29.2505 33.7191 30.0534C30.7918 29.6056 27.656 29.3735 24.4877 29.37C21.2933 29.37 18.1301 29.6025 15.1788 30.0542C12.2275 30.5059 9.54595 31.168 7.28725 32.0027C5.02856 32.8373 3.23696 33.8282 2.01477 34.9186C0.792579 36.0091 0.163735 37.1779 0.164147 38.3582C0.163735 39.5384 0.792579 40.7072 2.01477 41.7977C3.23696 42.8882 5.02856 43.879 7.28725 44.7137C9.54595 45.5483 12.2275 46.2104 15.1788 46.6621C18.1301 47.1138 21.2933 47.3463 24.4877 47.3463C27.1773 47.3428 29.8466 47.1745 32.3871 46.8483C32.0437 47.2061 31.8676 47.5818 31.8659 47.9602C31.8693 48.8698 32.8787 49.7417 34.6725 50.3845C36.4663 51.0273 38.8978 51.3884 41.4332 51.3887C43.9685 51.3884 46.4001 51.0273 48.1938 50.3845C49.9876 49.7417 50.997 48.8698 51.0004 47.9602C50.995 47.0929 50.0748 46.2584 48.4246 45.6246C46.7744 44.9907 44.5166 44.6044 42.105 44.5433C46.4028 42.8752 48.8034 40.6612 48.8113 38.3582C48.806 37.5033 48.4706 36.653 47.8152 35.8331C49.6596 35.4797 51.2234 34.9108 52.3201 34.194C53.4167 33.4773 54 32.6431 54.0004 31.7908C54.0018 31.2071 53.7297 30.6289 53.1995 30.0894C52.6693 29.5499 51.8915 29.0596 50.9105 28.6466C49.9295 28.2335 48.7646 27.9058 47.4822 27.6821C46.1999 27.4585 44.8253 27.3432 43.437 27.3431ZM9.44186 49.3617C8.09511 49.3617 6.80339 49.5739 5.85028 49.9518C4.89716 50.3296 4.36055 50.8422 4.35823 51.3771C4.36055 51.9119 4.89716 52.4245 5.85028 52.8024C6.80339 53.1802 8.09511 53.3925 9.44186 53.3925C10.7888 53.3926 12.0808 53.1804 13.0342 52.8025C13.9876 52.4247 14.5243 51.912 14.5266 51.3771C14.5243 50.8422 13.9876 50.3295 13.0342 49.9516C12.0808 49.5737 10.7888 49.3616 9.44186 49.3617Z" fill="white"/>
</svg>
