<svg width="60" height="60" viewBox="0 0 60 60" fill="none" xmlns="http://www.w3.org/2000/svg">
<path d="M30.0184 3.97357C18.8991 4.06589 16.4231 12.8565 20.8179 19.6256C20.0769 20.3824 19.6198 21.4656 20.7523 22.5981C22.6055 24.4514 24.4588 24.4514 25.3682 26.3532H34.6686C35.5781 24.4514 37.4313 24.4514 39.2846 22.5981C40.4171 21.4656 39.9599 20.3824 39.219 19.6256C43.6138 12.8567 41.1378 4.06589 30.0184 3.97357ZM25.1368 15.6777C25.1861 15.6774 25.2366 15.6785 25.2881 15.6812C28.578 15.8482 30.0184 22.5981 24.0337 21.5994C22.8277 21.3981 22.0235 15.6965 25.1368 15.6777ZM34.9001 15.6777C38.0135 15.6965 37.2092 21.3981 36.0032 21.5994C30.0184 22.5981 31.4589 15.8482 34.7488 15.681C34.8002 15.6784 34.8507 15.6773 34.9001 15.6775V15.6777ZM4.07327 17.0385C4.93108 27.2991 11.5412 37.3711 22.2144 44.4659C24.2945 43.626 26.3572 42.6912 28.0548 41.7003C21.245 37.3935 12.5216 29.9491 4.07327 17.0385ZM55.9636 17.0385C41.9717 38.4206 27.2227 44.8133 21.6683 46.7824C22.0362 47.4048 22.3629 48.0542 22.6772 48.6857C23.1264 49.5878 23.5553 50.4521 23.9726 51.1164C26.0287 50.4445 28.047 49.6619 30.0184 48.7718L30.0379 48.7806C30.4116 48.6034 30.7843 48.4238 31.1559 48.242C45.7116 41.2767 54.9392 29.2918 55.9636 17.0385ZM30.0184 20.2498L32.3435 24.9002L30.0184 23.4469L27.6933 24.9002L30.0184 20.2498ZM22.4197 26.8646L24.2452 32.7766C24.2452 32.7766 27.8668 35.663 30.0184 35.663C32.17 35.663 35.7917 32.7766 35.7917 32.7766L37.6171 26.8647L34.4798 29.0928L33.5459 30.9747C33.5459 30.9747 31.3331 32.7384 30.0184 32.7384C28.7038 32.7384 26.4909 30.9747 26.4909 30.9747L25.557 29.0928L22.4197 26.8646ZM15.472 44.5833C15.3803 44.581 15.2885 44.582 15.1969 44.5864L15.2961 46.6688C16.0327 46.6338 16.5486 46.9486 17.162 47.6695C17.7757 48.3902 18.3574 49.4888 18.9272 50.6334C19.4969 51.778 20.0516 52.9638 20.7946 53.9287C21.5376 54.8931 22.6712 55.7177 24.0341 55.5375L23.7608 53.4707C23.2866 53.5333 22.9755 53.3434 22.4463 52.6563C21.9169 51.9691 21.372 50.8656 20.7937 49.704C20.2154 48.5424 19.601 47.3175 18.75 46.3179C17.9522 45.3809 16.8323 44.6169 15.472 44.5833ZM44.5649 44.5833C43.2045 44.6169 42.0847 45.3808 41.287 46.3179C40.4359 47.3175 39.8214 48.5424 39.2432 49.704C38.6649 50.8657 38.1199 51.9691 37.5906 52.6563C37.0613 53.3434 36.7503 53.5333 36.276 53.4707L36.0027 55.5375C37.3657 55.7177 38.4993 54.8931 39.2423 53.9287C39.9853 52.9638 40.54 51.778 41.1098 50.6334C41.6795 49.4888 42.2611 48.3902 42.8747 47.6694C43.4883 46.9486 44.004 46.6338 44.7408 46.6688L44.84 44.5864C44.7483 44.5821 44.6566 44.581 44.5649 44.5833ZM38.0869 46.6806C36.4688 47.8392 34.5971 48.872 32.594 49.8633C33.7378 50.316 34.8951 50.7339 36.0642 51.1164C36.4816 50.4521 36.9105 49.5878 37.3596 48.6857C37.674 48.0541 38.0006 47.4048 38.3685 46.7824C38.2793 46.7508 38.1809 46.7145 38.087 46.6806H38.0869ZM15.8704 49.3876L12.6655 50.5866L13.581 54.2665L17.7999 52.9105C17.6356 52.5846 17.4744 52.2562 17.3126 51.931C16.8437 50.9892 16.3664 50.0823 15.8704 49.3876ZM44.1664 49.3876C43.6705 50.0823 43.1931 50.9892 42.7244 51.931C42.5623 52.2562 42.4012 52.5846 42.237 52.9105L46.4559 54.2665L47.3713 50.5866L44.1664 49.3876ZM9.43269 50.7947C9.38146 50.7959 9.33038 50.8005 9.27979 50.8086C9.23179 50.8164 9.18461 50.8285 9.13883 50.8449C7.80173 51.3315 6.23101 52.9344 6.63142 54.2998C6.98701 55.5127 8.91031 55.8471 10.1632 55.68C10.6066 55.6209 11.1379 55.2443 11.5802 54.8592L10.6393 51.0777C10.2642 50.9289 9.80368 50.7849 9.43269 50.7947ZM50.6042 50.7947C50.2332 50.7849 49.7727 50.9289 49.3977 51.0777L48.4566 54.8592C48.899 55.2443 49.4303 55.6209 49.8737 55.68C51.1266 55.8471 53.0499 55.5127 53.4054 54.2998C53.8059 52.9344 52.2351 51.3315 50.898 50.8449C50.8523 50.8285 50.8051 50.8164 50.7571 50.8088C50.7065 50.8005 50.6554 50.7959 50.6042 50.7947Z" fill="white"/>
</svg>
