<svg width="38" height="56" viewBox="0 0 38 56" fill="none" xmlns="http://www.w3.org/2000/svg">
<path d="M13.3214 52.103H24.4408V55.8094H13.3214V52.103ZM11.4682 46.5433H26.294V50.2498H11.4682V46.5433ZM32.0182 5.62061C28.5353 2.13307 23.8698 0.212668 18.8811 0.212668C16.4458 0.206864 14.0333 0.682253 11.7823 1.61153C9.5312 2.54081 7.48591 3.90566 5.76388 5.6277C4.04184 7.34973 2.67699 9.39502 1.74771 11.6461C0.818432 13.8971 0.343043 16.3096 0.348847 18.7449C0.348847 24.1448 2.41867 29.196 6.02435 32.6024L6.52936 33.0762C8.61539 35.0267 11.4682 37.6988 11.4682 40.057V44.6901H17.0279V29.5295L11.8991 26.6211L14.0164 23.5772L18.8811 26.1578L23.6636 23.5645L25.8759 26.5389L20.7343 29.5504V44.6901H26.294V40.057C26.294 37.7544 29.1155 35.0846 31.1761 33.1341L31.7448 32.5943C35.4536 29.0535 37.4134 24.2594 37.4134 18.7449C37.4256 16.3094 36.9552 13.8955 36.0291 11.6429C35.1031 9.3902 33.7398 7.34336 32.0182 5.62061Z" fill="white"/>
</svg>
